<svg xmlns="http://www.w3.org/2000/svg" version="1.1" xmlns:xlink="http://www.w3.org/1999/xlink" xmlns:svgjs="http://svgjs.dev/svgjs" width="1440" height="560" preserveAspectRatio="none" viewBox="0 0 1440 560"><g mask="url(&quot;#SvgjsMask1004&quot;)" fill="none"><rect width="1440" height="560" x="0" y="0" fill="#0e2a47"></rect><path d="M0,412.001C86.226,400.507,178.88,438.825,255.251,397.178C333.233,354.652,364.409,263.294,411.174,187.777C465.076,100.734,550.66,23.274,550.197,-79.106C549.721,-184.338,481.903,-278.538,408.726,-354.163C337.967,-427.289,243.953,-469.686,145.909,-496.919C48.979,-523.843,-55.925,-546.102,-149.522,-509.226C-240.469,-473.394,-300.242,-387.02,-348.619,-302.08C-390.78,-228.054,-392.027,-142.404,-406.28,-58.414C-420.955,28.064,-450.238,111.864,-433.474,197.961C-413.764,299.189,-395.552,425.945,-303.082,471.605C-208.852,518.133,-104.17,425.887,0,412.001" fill="#0b2239"></path><path d="M1440 1008.3140000000001C1536.71 1012.977 1633.245 1035.012 1724.528 1002.7339999999999 1830.112 965.4 1934.416 907.946 1993.281 812.675 2055.129 712.576 2070.036 588.287 2052.492 471.937 2035.0149999999999 356.03 1980.8490000000002 245.68099999999998 1895.647 165.18 1814.526 88.53500000000003 1699.22 73.07900000000001 1593.26 38.04399999999998 1483.204 1.6549999999999727 1368.283-91.774 1262.613-44.125999999999976 1154.5140000000001 4.616999999999962 1168.44 168.06599999999997 1096.259 262.147 1030.548 347.79499999999996 887.045 371.81899999999996 862.786 477.009 838.649 581.668 922.376 679.267 979.017 770.524 1029.68 852.149 1087.195 932.079 1172.575 976.121 1254.019 1018.1320000000001 1348.465 1003.9010000000001 1440 1008.3140000000001" fill="#113255"></path></g><defs><mask id="SvgjsMask1004"><rect width="1440" height="560" fill="#ffffff"></rect></mask></defs></svg>